<?xml version="1.0" encoding="UTF-8" standalone="no"?>
<!DOCTYPE svg PUBLIC "-//W3C//DTD SVG 1.1//EN"
 "http://www.w3.org/Graphics/SVG/1.1/DTD/svg11.dtd">
<!-- Generated by graphviz version 2.43.0 (0)
 -->
<!-- Title: aruco_markers.detect.DetectSingleMarkerPoseFromCameraCallback Pages: 1 -->
<svg width="217pt" height="162pt"
 viewBox="0.00 0.00 217.00 162.00" xmlns="http://www.w3.org/2000/svg" xmlns:xlink="http://www.w3.org/1999/xlink">
<g id="graph0" class="graph" transform="scale(1 1) rotate(0) translate(4 158)">
<title>aruco_markers.detect.DetectSingleMarkerPoseFromCameraCallback</title>
<!-- Node1 -->
<g id="node1" class="node">
<title>Node1</title>
<g id="a_node1"><a xlink:title="Callback class for the Camera viewer that detects corners in an image for a single marker,...">
<polygon fill="#bfbfbf" stroke="black" points="0,-0.5 0,-30.5 209,-30.5 209,-0.5 0,-0.5"/>
<text text-anchor="start" x="8" y="-18.5" font-family="Helvetica,sans-Serif" font-size="10.00">aruco_markers.detect.Detect</text>
<text text-anchor="middle" x="104.5" y="-7.5" font-family="Helvetica,sans-Serif" font-size="10.00">SingleMarkerPoseFromCameraCallback</text>
</a>
</g>
</g>
<!-- Node2 -->
<g id="node2" class="node">
<title>Node2</title>
<g id="a_node2"><a xlink:href="classaruco__markers_1_1camera_1_1CameraViewerCallback.html" target="_top" xlink:title="Callback class for the camera viewer.">
<polygon fill="none" stroke="black" points="19.5,-67.5 19.5,-97.5 189.5,-97.5 189.5,-67.5 19.5,-67.5"/>
<text text-anchor="start" x="27.5" y="-85.5" font-family="Helvetica,sans-Serif" font-size="10.00">aruco_markers.camera.Camera</text>
<text text-anchor="middle" x="104.5" y="-74.5" font-family="Helvetica,sans-Serif" font-size="10.00">ViewerCallback</text>
</a>
</g>
</g>
<!-- Node2&#45;&gt;Node1 -->
<g id="edge1" class="edge">
<title>Node2&#45;&gt;Node1</title>
<path fill="none" stroke="midnightblue" d="M104.5,-57.11C104.5,-48.15 104.5,-38.32 104.5,-30.58"/>
<polygon fill="midnightblue" stroke="midnightblue" points="101,-57.4 104.5,-67.4 108,-57.4 101,-57.4"/>
</g>
<!-- Node3 -->
<g id="node3" class="node">
<title>Node3</title>
<g id="a_node3"><a xlink:title=" ">
<polygon fill="none" stroke="#bfbfbf" points="76,-134.5 76,-153.5 133,-153.5 133,-134.5 76,-134.5"/>
<text text-anchor="middle" x="104.5" y="-141.5" font-family="Helvetica,sans-Serif" font-size="10.00">abc.ABC</text>
</a>
</g>
</g>
<!-- Node3&#45;&gt;Node2 -->
<g id="edge2" class="edge">
<title>Node3&#45;&gt;Node2</title>
<path fill="none" stroke="midnightblue" d="M104.5,-124.23C104.5,-115.59 104.5,-105.5 104.5,-97.52"/>
<polygon fill="midnightblue" stroke="midnightblue" points="101,-124.48 104.5,-134.48 108,-124.48 101,-124.48"/>
</g>
</g>
</svg>
