<?xml version="1.0" encoding="UTF-8" standalone="no"?>
<!DOCTYPE svg PUBLIC "-//W3C//DTD SVG 1.1//EN"
 "http://www.w3.org/Graphics/SVG/1.1/DTD/svg11.dtd">
<!-- Generated by graphviz version 2.43.0 (0)
 -->
<!-- Title: aruco_markers.camera.CameraViewerCallback Pages: 1 -->
<svg width="516pt" height="186pt"
 viewBox="0.00 0.00 516.00 186.00" xmlns="http://www.w3.org/2000/svg" xmlns:xlink="http://www.w3.org/1999/xlink">
<g id="graph0" class="graph" transform="scale(1 1) rotate(0) translate(4 182)">
<title>aruco_markers.camera.CameraViewerCallback</title>
<!-- Node1 -->
<g id="node1" class="node">
<title>Node1</title>
<g id="a_node1"><a xlink:title="Callback class for the camera viewer.">
<polygon fill="#bfbfbf" stroke="black" points="93,-73.5 93,-103.5 263,-103.5 263,-73.5 93,-73.5"/>
<text text-anchor="start" x="101" y="-91.5" font-family="Helvetica,sans-Serif" font-size="10.00">aruco_markers.camera.Camera</text>
<text text-anchor="middle" x="178" y="-80.5" font-family="Helvetica,sans-Serif" font-size="10.00">ViewerCallback</text>
</a>
</g>
</g>
<!-- Node3 -->
<g id="node3" class="node">
<title>Node3</title>
<g id="a_node3"><a xlink:href="classaruco__markers_1_1calibrate_1_1CalibrationDataCollectionCallback.html" target="_top" xlink:title="Callback for the CameraViewer class, that collects data.">
<polygon fill="none" stroke="black" points="311.5,-147.5 311.5,-177.5 495.5,-177.5 495.5,-147.5 311.5,-147.5"/>
<text text-anchor="start" x="319.5" y="-165.5" font-family="Helvetica,sans-Serif" font-size="10.00">aruco_markers.calibrate.</text>
<text text-anchor="middle" x="403.5" y="-154.5" font-family="Helvetica,sans-Serif" font-size="10.00">CalibrationDataCollectionCallback</text>
</a>
</g>
</g>
<!-- Node1&#45;&gt;Node3 -->
<g id="edge2" class="edge">
<title>Node1&#45;&gt;Node3</title>
<path fill="none" stroke="midnightblue" d="M220.42,-107.77C243.26,-117.88 272.31,-129.91 299,-138.5 309.1,-141.75 319.88,-144.75 330.53,-147.45"/>
<polygon fill="midnightblue" stroke="midnightblue" points="221.6,-104.47 211.05,-103.57 218.74,-110.85 221.6,-104.47"/>
</g>
<!-- Node4 -->
<g id="node4" class="node">
<title>Node4</title>
<g id="a_node4"><a xlink:href="classaruco__markers_1_1camera_1_1NullCameraViewerCallback.html" target="_top" xlink:title="A null camera viewer callback, this does nothing in the callback.">
<polygon fill="none" stroke="black" points="328,-98.5 328,-128.5 479,-128.5 479,-98.5 328,-98.5"/>
<text text-anchor="start" x="336" y="-116.5" font-family="Helvetica,sans-Serif" font-size="10.00">aruco_markers.camera.Null</text>
<text text-anchor="middle" x="403.5" y="-105.5" font-family="Helvetica,sans-Serif" font-size="10.00">CameraViewerCallback</text>
</a>
</g>
</g>
<!-- Node1&#45;&gt;Node4 -->
<g id="edge3" class="edge">
<title>Node1&#45;&gt;Node4</title>
<path fill="none" stroke="midnightblue" d="M273.25,-99.04C291.51,-101.08 310.41,-103.2 327.94,-105.16"/>
<polygon fill="midnightblue" stroke="midnightblue" points="273.5,-95.55 263.18,-97.92 272.73,-102.51 273.5,-95.55"/>
</g>
<!-- Node5 -->
<g id="node5" class="node">
<title>Node5</title>
<g id="a_node5"><a xlink:href="classaruco__markers_1_1camera_1_1ServerCameraViewerCallback.html" target="_top" xlink:title="A callback for the camera viewer that broadcasts the images on a network.">
<polygon fill="none" stroke="black" points="322,-49.5 322,-79.5 485,-79.5 485,-49.5 322,-49.5"/>
<text text-anchor="start" x="330" y="-67.5" font-family="Helvetica,sans-Serif" font-size="10.00">aruco_markers.camera.Server</text>
<text text-anchor="middle" x="403.5" y="-56.5" font-family="Helvetica,sans-Serif" font-size="10.00">CameraViewerCallback</text>
</a>
</g>
</g>
<!-- Node1&#45;&gt;Node5 -->
<g id="edge4" class="edge">
<title>Node1&#45;&gt;Node5</title>
<path fill="none" stroke="midnightblue" d="M273.16,-78.39C289.31,-76.65 305.96,-74.87 321.73,-73.17"/>
<polygon fill="midnightblue" stroke="midnightblue" points="272.75,-74.91 263.18,-79.46 273.49,-81.87 272.75,-74.91"/>
</g>
<!-- Node6 -->
<g id="node6" class="node">
<title>Node6</title>
<g id="a_node6"><a xlink:href="classaruco__markers_1_1detect_1_1DetectSingleMarkerPoseFromCameraCallback.html" target="_top" xlink:title="Callback class for the Camera viewer that detects corners in an image for a single marker,...">
<polygon fill="none" stroke="black" points="299,-0.5 299,-30.5 508,-30.5 508,-0.5 299,-0.5"/>
<text text-anchor="start" x="307" y="-18.5" font-family="Helvetica,sans-Serif" font-size="10.00">aruco_markers.detect.Detect</text>
<text text-anchor="middle" x="403.5" y="-7.5" font-family="Helvetica,sans-Serif" font-size="10.00">SingleMarkerPoseFromCameraCallback</text>
</a>
</g>
</g>
<!-- Node1&#45;&gt;Node6 -->
<g id="edge5" class="edge">
<title>Node1&#45;&gt;Node6</title>
<path fill="none" stroke="midnightblue" d="M221.19,-69.34C243.92,-59.51 272.63,-47.88 299,-39.5 309.2,-36.26 320.08,-33.25 330.83,-30.55"/>
<polygon fill="midnightblue" stroke="midnightblue" points="219.6,-66.21 211.84,-73.43 222.4,-72.63 219.6,-66.21"/>
</g>
<!-- Node2 -->
<g id="node2" class="node">
<title>Node2</title>
<g id="a_node2"><a xlink:title=" ">
<polygon fill="none" stroke="#bfbfbf" points="0,-79 0,-98 57,-98 57,-79 0,-79"/>
<text text-anchor="middle" x="28.5" y="-86" font-family="Helvetica,sans-Serif" font-size="10.00">abc.ABC</text>
</a>
</g>
</g>
<!-- Node2&#45;&gt;Node1 -->
<g id="edge1" class="edge">
<title>Node2&#45;&gt;Node1</title>
<path fill="none" stroke="midnightblue" d="M67.49,-88.5C75.36,-88.5 83.95,-88.5 92.74,-88.5"/>
<polygon fill="midnightblue" stroke="midnightblue" points="67.24,-85 57.24,-88.5 67.24,-92 67.24,-85"/>
</g>
</g>
</svg>
