<?xml version="1.0" encoding="UTF-8" standalone="no"?>
<!DOCTYPE svg PUBLIC "-//W3C//DTD SVG 1.1//EN"
 "http://www.w3.org/Graphics/SVG/1.1/DTD/svg11.dtd">
<!-- Generated by graphviz version 2.43.0 (0)
 -->
<!-- Title: aruco_markers.camera.cvCamera Pages: 1 -->
<svg width="207pt" height="196pt"
 viewBox="0.00 0.00 207.00 196.00" xmlns="http://www.w3.org/2000/svg" xmlns:xlink="http://www.w3.org/1999/xlink">
<g id="graph0" class="graph" transform="scale(1 1) rotate(0) translate(4 192)">
<title>aruco_markers.camera.cvCamera</title>
<!-- Node1 -->
<g id="node1" class="node">
<title>Node1</title>
<g id="a_node1"><a xlink:title="Interface to the OpenCV camera.">
<polygon fill="#bfbfbf" stroke="black" points="9,-56.5 9,-75.5 190,-75.5 190,-56.5 9,-56.5"/>
<text text-anchor="middle" x="99.5" y="-63.5" font-family="Helvetica,sans-Serif" font-size="10.00">aruco_markers.camera.cvCamera</text>
</a>
</g>
</g>
<!-- Node4 -->
<g id="node4" class="node">
<title>Node4</title>
<g id="a_node4"><a xlink:href="classaruco__markers_1_1camera_1_1ZEDMCamera.html" target="_top" xlink:title=" ">
<polygon fill="none" stroke="black" points="0,-0.5 0,-19.5 199,-19.5 199,-0.5 0,-0.5"/>
<text text-anchor="middle" x="99.5" y="-7.5" font-family="Helvetica,sans-Serif" font-size="10.00">aruco_markers.camera.ZEDMCamera</text>
</a>
</g>
</g>
<!-- Node1&#45;&gt;Node4 -->
<g id="edge3" class="edge">
<title>Node1&#45;&gt;Node4</title>
<path fill="none" stroke="midnightblue" d="M99.5,-45.8C99.5,-36.91 99.5,-26.78 99.5,-19.75"/>
<polygon fill="midnightblue" stroke="midnightblue" points="96,-46.08 99.5,-56.08 103,-46.08 96,-46.08"/>
</g>
<!-- Node2 -->
<g id="node2" class="node">
<title>Node2</title>
<g id="a_node2"><a xlink:href="classaruco__markers_1_1camera_1_1Camera.html" target="_top" xlink:title="Base class for a Camera.">
<polygon fill="none" stroke="black" points="14.5,-112.5 14.5,-131.5 184.5,-131.5 184.5,-112.5 14.5,-112.5"/>
<text text-anchor="middle" x="99.5" y="-119.5" font-family="Helvetica,sans-Serif" font-size="10.00">aruco_markers.camera.Camera</text>
</a>
</g>
</g>
<!-- Node2&#45;&gt;Node1 -->
<g id="edge1" class="edge">
<title>Node2&#45;&gt;Node1</title>
<path fill="none" stroke="midnightblue" d="M99.5,-101.8C99.5,-92.91 99.5,-82.78 99.5,-75.75"/>
<polygon fill="midnightblue" stroke="midnightblue" points="96,-102.08 99.5,-112.08 103,-102.08 96,-102.08"/>
</g>
<!-- Node3 -->
<g id="node3" class="node">
<title>Node3</title>
<g id="a_node3"><a xlink:title=" ">
<polygon fill="none" stroke="#bfbfbf" points="69.5,-168.5 69.5,-187.5 129.5,-187.5 129.5,-168.5 69.5,-168.5"/>
<text text-anchor="middle" x="99.5" y="-175.5" font-family="Helvetica,sans-Serif" font-size="10.00">abc::ABC</text>
</a>
</g>
</g>
<!-- Node3&#45;&gt;Node2 -->
<g id="edge2" class="edge">
<title>Node3&#45;&gt;Node2</title>
<path fill="none" stroke="midnightblue" d="M99.5,-157.8C99.5,-148.91 99.5,-138.78 99.5,-131.75"/>
<polygon fill="midnightblue" stroke="midnightblue" points="96,-158.08 99.5,-168.08 103,-158.08 96,-158.08"/>
</g>
</g>
</svg>
