<?xml version="1.0" encoding="UTF-8" standalone="no"?>
<!DOCTYPE svg PUBLIC "-//W3C//DTD SVG 1.1//EN"
 "http://www.w3.org/Graphics/SVG/1.1/DTD/svg11.dtd">
<!-- Generated by graphviz version 2.43.0 (0)
 -->
<!-- Title: aruco_markers.camera.UDPSenderServer Pages: 1 -->
<svg width="194pt" height="162pt"
 viewBox="0.00 0.00 194.00 162.00" xmlns="http://www.w3.org/2000/svg" xmlns:xlink="http://www.w3.org/1999/xlink">
<g id="graph0" class="graph" transform="scale(1 1) rotate(0) translate(4 158)">
<title>aruco_markers.camera.UDPSenderServer</title>
<!-- Node1 -->
<g id="node1" class="node">
<title>Node1</title>
<g id="a_node1"><a xlink:title=" ">
<polygon fill="#bfbfbf" stroke="black" points="0,-0.5 0,-30.5 186,-30.5 186,-0.5 0,-0.5"/>
<text text-anchor="start" x="8" y="-18.5" font-family="Helvetica,sans-Serif" font-size="10.00">aruco_markers.camera.UDPSender</text>
<text text-anchor="middle" x="93" y="-7.5" font-family="Helvetica,sans-Serif" font-size="10.00">Server</text>
</a>
</g>
</g>
<!-- Node2 -->
<g id="node2" class="node">
<title>Node2</title>
<g id="a_node2"><a xlink:href="classaruco__markers_1_1camera_1_1SenderServer.html" target="_top" xlink:title=" ">
<polygon fill="none" stroke="black" points="10.5,-67.5 10.5,-97.5 175.5,-97.5 175.5,-67.5 10.5,-67.5"/>
<text text-anchor="start" x="18.5" y="-85.5" font-family="Helvetica,sans-Serif" font-size="10.00">aruco_markers.camera.Sender</text>
<text text-anchor="middle" x="93" y="-74.5" font-family="Helvetica,sans-Serif" font-size="10.00">Server</text>
</a>
</g>
</g>
<!-- Node2&#45;&gt;Node1 -->
<g id="edge1" class="edge">
<title>Node2&#45;&gt;Node1</title>
<path fill="none" stroke="midnightblue" d="M93,-57.11C93,-48.15 93,-38.32 93,-30.58"/>
<polygon fill="midnightblue" stroke="midnightblue" points="89.5,-57.4 93,-67.4 96.5,-57.4 89.5,-57.4"/>
</g>
<!-- Node3 -->
<g id="node3" class="node">
<title>Node3</title>
<g id="a_node3"><a xlink:title=" ">
<polygon fill="none" stroke="#bfbfbf" points="64.5,-134.5 64.5,-153.5 121.5,-153.5 121.5,-134.5 64.5,-134.5"/>
<text text-anchor="middle" x="93" y="-141.5" font-family="Helvetica,sans-Serif" font-size="10.00">abc.ABC</text>
</a>
</g>
</g>
<!-- Node3&#45;&gt;Node2 -->
<g id="edge2" class="edge">
<title>Node3&#45;&gt;Node2</title>
<path fill="none" stroke="midnightblue" d="M93,-124.23C93,-115.59 93,-105.5 93,-97.52"/>
<polygon fill="midnightblue" stroke="midnightblue" points="89.5,-124.48 93,-134.48 96.5,-124.48 89.5,-124.48"/>
</g>
</g>
</svg>
