<?xml version="1.0" encoding="UTF-8" standalone="no"?>
<!DOCTYPE svg PUBLIC "-//W3C//DTD SVG 1.1//EN"
 "http://www.w3.org/Graphics/SVG/1.1/DTD/svg11.dtd">
<!-- Generated by graphviz version 2.43.0 (0)
 -->
<!-- Title: aruco_markers.camera.Camera Pages: 1 -->
<svg width="379pt" height="207pt"
 viewBox="0.00 0.00 379.00 207.00" xmlns="http://www.w3.org/2000/svg" xmlns:xlink="http://www.w3.org/1999/xlink">
<g id="graph0" class="graph" transform="scale(1 1) rotate(0) translate(4 203)">
<title>aruco_markers.camera.Camera</title>
<!-- Node1 -->
<g id="node1" class="node">
<title>Node1</title>
<g id="a_node1"><a xlink:title="Base class for a Camera.">
<polygon fill="#bfbfbf" stroke="black" points="91.5,-123.5 91.5,-142.5 261.5,-142.5 261.5,-123.5 91.5,-123.5"/>
<text text-anchor="middle" x="176.5" y="-130.5" font-family="Helvetica,sans-Serif" font-size="10.00">aruco_markers.camera.Camera</text>
</a>
</g>
</g>
<!-- Node3 -->
<g id="node3" class="node">
<title>Node3</title>
<g id="a_node3"><a xlink:href="classaruco__markers_1_1camera_1_1ServerCamera.html" target="_top" xlink:title=" ">
<polygon fill="none" stroke="black" points="0,-56.5 0,-86.5 163,-86.5 163,-56.5 0,-56.5"/>
<text text-anchor="start" x="8" y="-74.5" font-family="Helvetica,sans-Serif" font-size="10.00">aruco_markers.camera.Server</text>
<text text-anchor="middle" x="81.5" y="-63.5" font-family="Helvetica,sans-Serif" font-size="10.00">Camera</text>
</a>
</g>
</g>
<!-- Node1&#45;&gt;Node3 -->
<g id="edge2" class="edge">
<title>Node1&#45;&gt;Node3</title>
<path fill="none" stroke="midnightblue" d="M154.16,-118.01C139.01,-108.52 119.05,-96.02 103.89,-86.52"/>
<polygon fill="midnightblue" stroke="midnightblue" points="152.56,-121.13 162.89,-123.48 156.27,-115.2 152.56,-121.13"/>
</g>
<!-- Node4 -->
<g id="node4" class="node">
<title>Node4</title>
<g id="a_node4"><a xlink:href="classaruco__markers_1_1camera_1_1cvCamera.html" target="_top" xlink:title="Interface to the OpenCV camera.">
<polygon fill="none" stroke="black" points="181,-62 181,-81 362,-81 362,-62 181,-62"/>
<text text-anchor="middle" x="271.5" y="-69" font-family="Helvetica,sans-Serif" font-size="10.00">aruco_markers.camera.cvCamera</text>
</a>
</g>
</g>
<!-- Node1&#45;&gt;Node4 -->
<g id="edge3" class="edge">
<title>Node1&#45;&gt;Node4</title>
<path fill="none" stroke="midnightblue" d="M198.71,-118.09C217.05,-106.6 242.48,-90.68 257.91,-81.01"/>
<polygon fill="midnightblue" stroke="midnightblue" points="196.73,-115.2 190.11,-123.48 200.44,-121.13 196.73,-115.2"/>
</g>
<!-- Node2 -->
<g id="node2" class="node">
<title>Node2</title>
<g id="a_node2"><a xlink:title=" ">
<polygon fill="none" stroke="#bfbfbf" points="146.5,-179.5 146.5,-198.5 206.5,-198.5 206.5,-179.5 146.5,-179.5"/>
<text text-anchor="middle" x="176.5" y="-186.5" font-family="Helvetica,sans-Serif" font-size="10.00">abc::ABC</text>
</a>
</g>
</g>
<!-- Node2&#45;&gt;Node1 -->
<g id="edge1" class="edge">
<title>Node2&#45;&gt;Node1</title>
<path fill="none" stroke="midnightblue" d="M176.5,-168.8C176.5,-159.91 176.5,-149.78 176.5,-142.75"/>
<polygon fill="midnightblue" stroke="midnightblue" points="173,-169.08 176.5,-179.08 180,-169.08 173,-169.08"/>
</g>
<!-- Node5 -->
<g id="node5" class="node">
<title>Node5</title>
<g id="a_node5"><a xlink:href="classaruco__markers_1_1camera_1_1ZEDMCamera.html" target="_top" xlink:title=" ">
<polygon fill="none" stroke="black" points="172,-0.5 172,-19.5 371,-19.5 371,-0.5 172,-0.5"/>
<text text-anchor="middle" x="271.5" y="-7.5" font-family="Helvetica,sans-Serif" font-size="10.00">aruco_markers.camera.ZEDMCamera</text>
</a>
</g>
</g>
<!-- Node4&#45;&gt;Node5 -->
<g id="edge4" class="edge">
<title>Node4&#45;&gt;Node5</title>
<path fill="none" stroke="midnightblue" d="M271.5,-51.82C271.5,-41 271.5,-27.9 271.5,-19.51"/>
<polygon fill="midnightblue" stroke="midnightblue" points="268,-51.98 271.5,-61.98 275,-51.98 268,-51.98"/>
</g>
</g>
</svg>
