<?xml version="1.0" encoding="UTF-8" standalone="no"?>
<!DOCTYPE svg PUBLIC "-//W3C//DTD SVG 1.1//EN"
 "http://www.w3.org/Graphics/SVG/1.1/DTD/svg11.dtd">
<!-- Generated by graphviz version 2.43.0 (0)
 -->
<!-- Title: Graphical Class Hierarchy Pages: 1 -->
<svg width="857pt" height="274pt"
 viewBox="0.00 0.00 857.00 273.50" xmlns="http://www.w3.org/2000/svg" xmlns:xlink="http://www.w3.org/1999/xlink">
<g id="graph0" class="graph" transform="scale(1 1) rotate(0) translate(4 269.5)">
<title>Graphical Class Hierarchy</title>
<!-- Node1 -->
<g id="node1" class="node">
<title>Node1</title>
<g id="a_node1"><a xlink:href="classaruco__markers_1_1camera_1_1ServerCamera.html" target="_top" xlink:title=" ">
<polygon fill="none" stroke="black" points="0,-144.5 0,-174.5 163,-174.5 163,-144.5 0,-144.5"/>
<text text-anchor="start" x="8" y="-162.5" font-family="Helvetica,sans-Serif" font-size="10.00">aruco_markers.camera.Server</text>
<text text-anchor="middle" x="81.5" y="-151.5" font-family="Helvetica,sans-Serif" font-size="10.00">Camera</text>
</a>
</g>
</g>
<!-- Node0 -->
<g id="node2" class="node">
<title>Node0</title>
<g id="a_node2"><a xlink:href="classaruco__markers_1_1camera_1_1Camera.html" target="_top" xlink:title="Base class for a Camera.">
<polygon fill="none" stroke="black" points="199,-172 199,-191 369,-191 369,-172 199,-172"/>
<text text-anchor="middle" x="284" y="-179" font-family="Helvetica,sans-Serif" font-size="10.00">aruco_markers.camera.Camera</text>
</a>
</g>
</g>
<!-- Node1&#45;&gt;Node0 -->
<g id="edge1" class="edge">
<title>Node1&#45;&gt;Node0</title>
<path fill="none" stroke="midnightblue" d="M173.28,-162.74C198.79,-165.39 225.12,-168.72 245.59,-172"/>
<polygon fill="midnightblue" stroke="midnightblue" points="173.49,-159.24 163.18,-161.72 172.78,-166.21 173.49,-159.24"/>
</g>
<!-- Node6 -->
<g id="node5" class="node">
<title>Node6</title>
<g id="a_node5"><a xlink:href="classaruco__markers_1_1camera_1_1CameraViewerCallback.html" target="_top" xlink:title="Callback class for the camera viewer.">
<polygon fill="none" stroke="black" points="199,-122.5 199,-152.5 369,-152.5 369,-122.5 199,-122.5"/>
<text text-anchor="start" x="207" y="-140.5" font-family="Helvetica,sans-Serif" font-size="10.00">aruco_markers.camera.Camera</text>
<text text-anchor="middle" x="284" y="-129.5" font-family="Helvetica,sans-Serif" font-size="10.00">ViewerCallback</text>
</a>
</g>
</g>
<!-- Node1&#45;&gt;Node6 -->
<g id="edge5" class="edge">
<title>Node1&#45;&gt;Node6</title>
<path fill="none" stroke="midnightblue" d="M173.17,-149.55C181.73,-148.61 190.39,-147.66 198.88,-146.73"/>
<polygon fill="midnightblue" stroke="midnightblue" points="172.74,-146.08 163.18,-150.65 173.51,-153.04 172.74,-146.08"/>
</g>
<!-- Node11 -->
<g id="node10" class="node">
<title>Node11</title>
<g id="a_node10"><a xlink:href="classaruco__markers_1_1camera_1_1SenderServer.html" target="_top" xlink:title=" ">
<polygon fill="none" stroke="black" points="201.5,-49.5 201.5,-79.5 366.5,-79.5 366.5,-49.5 201.5,-49.5"/>
<text text-anchor="start" x="209.5" y="-67.5" font-family="Helvetica,sans-Serif" font-size="10.00">aruco_markers.camera.Sender</text>
<text text-anchor="middle" x="284" y="-56.5" font-family="Helvetica,sans-Serif" font-size="10.00">Server</text>
</a>
</g>
</g>
<!-- Node1&#45;&gt;Node11 -->
<g id="edge10" class="edge">
<title>Node1&#45;&gt;Node11</title>
<path fill="none" stroke="midnightblue" d="M123.47,-140.09C161.22,-122.2 216.47,-96.02 251.05,-79.64"/>
<polygon fill="midnightblue" stroke="midnightblue" points="121.81,-137 114.27,-144.45 124.81,-143.33 121.81,-137"/>
</g>
<!-- Node0&#45;&gt;Node1 -->
<g id="edge2" class="edge">
<title>Node0&#45;&gt;Node1</title>
<path fill="none" stroke="midnightblue" d="M188.74,-177.9C178.93,-176.85 169.03,-175.72 159.45,-174.53"/>
<polygon fill="midnightblue" stroke="midnightblue" points="188.62,-181.4 198.92,-178.95 189.33,-174.44 188.62,-181.4"/>
</g>
<!-- Node2 -->
<g id="node3" class="node">
<title>Node2</title>
<g id="a_node3"><a xlink:href="classaruco__markers_1_1camera_1_1cvCamera.html" target="_top" xlink:title="Interface to the OpenCV camera.">
<polygon fill="none" stroke="black" points="419,-246 419,-265 600,-265 600,-246 419,-246"/>
<text text-anchor="middle" x="509.5" y="-253" font-family="Helvetica,sans-Serif" font-size="10.00">aruco_markers.camera.cvCamera</text>
</a>
</g>
</g>
<!-- Node0&#45;&gt;Node2 -->
<g id="edge3" class="edge">
<title>Node0&#45;&gt;Node2</title>
<path fill="none" stroke="midnightblue" d="M311.44,-195.94C335.26,-208.38 371.58,-225.95 405,-236.5 417.02,-240.29 430.08,-243.42 442.75,-245.97"/>
<polygon fill="midnightblue" stroke="midnightblue" points="312.82,-192.71 302.34,-191.12 309.54,-198.89 312.82,-192.71"/>
</g>
<!-- Node3 -->
<g id="node4" class="node">
<title>Node3</title>
<g id="a_node4"><a xlink:href="classaruco__markers_1_1camera_1_1ZEDMCamera.html" target="_top" xlink:title=" ">
<polygon fill="none" stroke="black" points="650,-246 650,-265 849,-265 849,-246 650,-246"/>
<text text-anchor="middle" x="749.5" y="-253" font-family="Helvetica,sans-Serif" font-size="10.00">aruco_markers.camera.ZEDMCamera</text>
</a>
</g>
</g>
<!-- Node2&#45;&gt;Node3 -->
<g id="edge4" class="edge">
<title>Node2&#45;&gt;Node3</title>
<path fill="none" stroke="midnightblue" d="M610.49,-255.5C623.49,-255.5 636.8,-255.5 649.78,-255.5"/>
<polygon fill="midnightblue" stroke="midnightblue" points="610.14,-252 600.14,-255.5 610.14,-259 610.14,-252"/>
</g>
<!-- Node7 -->
<g id="node6" class="node">
<title>Node7</title>
<g id="a_node6"><a xlink:href="classaruco__markers_1_1calibrate_1_1CalibrationDataCollectionCallback.html" target="_top" xlink:title="Callback for the CameraViewer class, that collects data.">
<polygon fill="none" stroke="black" points="417.5,-196.5 417.5,-226.5 601.5,-226.5 601.5,-196.5 417.5,-196.5"/>
<text text-anchor="start" x="425.5" y="-214.5" font-family="Helvetica,sans-Serif" font-size="10.00">aruco_markers.calibrate.</text>
<text text-anchor="middle" x="509.5" y="-203.5" font-family="Helvetica,sans-Serif" font-size="10.00">CalibrationDataCollectionCallback</text>
</a>
</g>
</g>
<!-- Node6&#45;&gt;Node7 -->
<g id="edge6" class="edge">
<title>Node6&#45;&gt;Node7</title>
<path fill="none" stroke="midnightblue" d="M353.71,-155.96C358.96,-157.97 364.11,-160.15 369,-162.5 386.56,-170.94 387.19,-179.6 405,-187.5 412.76,-190.94 421.07,-193.92 429.48,-196.49"/>
<polygon fill="midnightblue" stroke="midnightblue" points="354.79,-152.63 344.19,-152.52 352.41,-159.21 354.79,-152.63"/>
</g>
<!-- Node8 -->
<g id="node7" class="node">
<title>Node8</title>
<g id="a_node7"><a xlink:href="classaruco__markers_1_1camera_1_1NullCameraViewerCallback.html" target="_top" xlink:title="A null camera viewer callback, this does nothing in the callback.">
<polygon fill="none" stroke="black" points="434,-147.5 434,-177.5 585,-177.5 585,-147.5 434,-147.5"/>
<text text-anchor="start" x="442" y="-165.5" font-family="Helvetica,sans-Serif" font-size="10.00">aruco_markers.camera.Null</text>
<text text-anchor="middle" x="509.5" y="-154.5" font-family="Helvetica,sans-Serif" font-size="10.00">CameraViewerCallback</text>
</a>
</g>
</g>
<!-- Node6&#45;&gt;Node8 -->
<g id="edge7" class="edge">
<title>Node6&#45;&gt;Node8</title>
<path fill="none" stroke="midnightblue" d="M379.25,-148.04C397.51,-150.08 416.41,-152.2 433.94,-154.16"/>
<polygon fill="midnightblue" stroke="midnightblue" points="379.5,-144.55 369.18,-146.92 378.73,-151.51 379.5,-144.55"/>
</g>
<!-- Node9 -->
<g id="node8" class="node">
<title>Node9</title>
<g id="a_node8"><a xlink:href="classaruco__markers_1_1camera_1_1ServerCameraViewerCallback.html" target="_top" xlink:title="A callback for the camera viewer that broadcasts the images on a network.">
<polygon fill="none" stroke="black" points="428,-98.5 428,-128.5 591,-128.5 591,-98.5 428,-98.5"/>
<text text-anchor="start" x="436" y="-116.5" font-family="Helvetica,sans-Serif" font-size="10.00">aruco_markers.camera.Server</text>
<text text-anchor="middle" x="509.5" y="-105.5" font-family="Helvetica,sans-Serif" font-size="10.00">CameraViewerCallback</text>
</a>
</g>
</g>
<!-- Node6&#45;&gt;Node9 -->
<g id="edge8" class="edge">
<title>Node6&#45;&gt;Node9</title>
<path fill="none" stroke="midnightblue" d="M379.16,-127.39C395.31,-125.65 411.96,-123.87 427.73,-122.17"/>
<polygon fill="midnightblue" stroke="midnightblue" points="378.75,-123.91 369.18,-128.46 379.49,-130.87 378.75,-123.91"/>
</g>
<!-- Node10 -->
<g id="node9" class="node">
<title>Node10</title>
<g id="a_node9"><a xlink:href="classaruco__markers_1_1detect_1_1DetectSingleMarkerPoseFromCameraCallback.html" target="_top" xlink:title="Callback class for the Camera viewer that detects corners in an image for a single marker,...">
<polygon fill="none" stroke="black" points="405,-49.5 405,-79.5 614,-79.5 614,-49.5 405,-49.5"/>
<text text-anchor="start" x="413" y="-67.5" font-family="Helvetica,sans-Serif" font-size="10.00">aruco_markers.detect.Detect</text>
<text text-anchor="middle" x="509.5" y="-56.5" font-family="Helvetica,sans-Serif" font-size="10.00">SingleMarkerPoseFromCameraCallback</text>
</a>
</g>
</g>
<!-- Node6&#45;&gt;Node10 -->
<g id="edge9" class="edge">
<title>Node6&#45;&gt;Node10</title>
<path fill="none" stroke="midnightblue" d="M328.23,-118.46C350.82,-108.96 379.09,-97.76 405,-89.5 416.27,-85.9 428.38,-82.54 440.19,-79.53"/>
<polygon fill="midnightblue" stroke="midnightblue" points="326.76,-115.28 318.92,-122.41 329.49,-121.73 326.76,-115.28"/>
</g>
<!-- Node12 -->
<g id="node11" class="node">
<title>Node12</title>
<g id="a_node11"><a xlink:href="classaruco__markers_1_1camera_1_1UDPSenderServer.html" target="_top" xlink:title=" ">
<polygon fill="none" stroke="black" points="416.5,-0.5 416.5,-30.5 602.5,-30.5 602.5,-0.5 416.5,-0.5"/>
<text text-anchor="start" x="424.5" y="-18.5" font-family="Helvetica,sans-Serif" font-size="10.00">aruco_markers.camera.UDPSender</text>
<text text-anchor="middle" x="509.5" y="-7.5" font-family="Helvetica,sans-Serif" font-size="10.00">Server</text>
</a>
</g>
</g>
<!-- Node11&#45;&gt;Node12 -->
<g id="edge11" class="edge">
<title>Node11&#45;&gt;Node12</title>
<path fill="none" stroke="midnightblue" d="M363.39,-47.31C388.38,-41.84 415.82,-35.82 440.05,-30.51"/>
<polygon fill="midnightblue" stroke="midnightblue" points="362.59,-43.9 353.58,-49.47 364.09,-50.74 362.59,-43.9"/>
</g>
</g>
</svg>
